<?xml version="1.0" encoding="utf-8"?>

<svg 
version="1.1"
id="emj9b7EPHDe1" 
xmlns="http://www.w3.org/2000/svg" 
xmlns:xlink="http://www.w3.org/1999/xlink"
width="44"
height="44" 
viewBox="0 0 44 44" 
shape-rendering="geometricPrecision"
text-rendering="geometricPrecision">
    <defs>
        <filter id="blur" width="200%" height="200%">
            <feGaussianBlur in="SourceAlpha" stdDeviation="3"/>
            <feOffset dx="0" dy="4" result="offsetblur"/>
            <feComponentTransfer>
                <feFuncA type="linear" slope="0.05"/>
            </feComponentTransfer>
            <feMerge> 
                <feMergeNode/>
                <feMergeNode in="SourceGraphic"/> 
            </feMerge>
        </filter>
    <style type="text/css"><![CDATA[
@keyframes am-weather-cloud {
  0% {
    -webkit-transform: scale(1, 1);
       -moz-transform: scale(1, 1);
        -ms-transform: scale(1, 1);
            transform: scale(1, 1);
  }

    50% {
    -webkit-transform: scale(1.1,1.1);
       -moz-transform: scale(1.1,1.1);
        -ms-transform: scale(1.1,1.1);
            transform: scale(1.1,1.1);
  }

  100% {
    -webkit-transform: scale(1, 1);
       -moz-transform: scale(1, 1);
        -ms-transform: scale(1, 1);
            transform: scale(1, 1);
  }
}

.am-weather-cloud {
  -webkit-animation-name: am-weather-cloud;
     -moz-animation-name: am-weather-cloud;
      -ms-animation-name: am-weather-cloud;
          animation-name: am-weather-cloud;
  -webkit-animation-duration: 1s;
     -moz-animation-duration: 1s;
      -ms-animation-duration: 1s;
          animation-duration: 1s;
  -webkit-animation-timing-function: linear;
     -moz-animation-timing-function: linear;
      -ms-animation-timing-function: linear;
          animation-timing-function: linear;
  -webkit-animation-iteration-count: infinite;
     -moz-animation-iteration-count: infinite;
      -ms-animation-iteration-count: infinite;
          animation-iteration-count: infinite;
}

@keyframes am-weather-fog-1 {
  0% {
    -webkit-transform: scale(1, 1);
       -moz-transform: scale(1, 1);
        -ms-transform: scale(1, 1);
            transform: scale(1, 1);
  }

    20% {
    -webkit-transform: scale(1.1,1.1);
       -moz-transform: scale(1.1,1.1);
        -ms-transform: scale(1.1,1.1);
            transform: scale(1.1,1.1);
  }

  100% {
    -webkit-transform: scale(1, 1);
       -moz-transform: scale(1, 1);
        -ms-transform: scale(1, 1);
            transform: scale(1, 1);
  }
}

.am-weather-fog-1 {
  -webkit-animation-name: am-weather-fog-1;
     -moz-animation-name: am-weather-fog-1;
      -ms-animation-name: am-weather-fog-1;
          animation-name: am-weather-fog-1;
  -webkit-animation-duration: 1s;
     -moz-animation-duration: 1s;
      -ms-animation-duration: 1s;
          animation-duration: 1s;
  -webkit-animation-timing-function: linear;
     -moz-animation-timing-function: linear;
      -ms-animation-timing-function: linear;
          animation-timing-function: linear;
  -webkit-animation-iteration-count: infinite;
     -moz-animation-iteration-count: infinite;
      -ms-animation-iteration-count: infinite;
          animation-iteration-count: infinite;
}

@keyframes am-weather-fog-2 {
  0% {
    -webkit-transform: scale(1, 1);
       -moz-transform: scale(1, 1);
        -ms-transform: scale(1, 1);
            transform: scale(1, 1);
  }

    40% {
    -webkit-transform: scale(1.1,1.1);
       -moz-transform: scale(1.1,1.1);
        -ms-transform: scale(1.1,1.1);
            transform: scale(1.1,1.1);
  }

  100% {
    -webkit-transform: scale(1, 1);
       -moz-transform: scale(1, 1);
        -ms-transform: scale(1, 1);
            transform: scale(1, 1);
  }
}

.am-weather-fog-2 {
  -webkit-animation-name: am-weather-fog-2;
     -moz-animation-name: am-weather-fog-2;
      -ms-animation-name: am-weather-fog-2;
          animation-name: am-weather-fog-2;
  -webkit-animation-duration: 1s;
     -moz-animation-duration: 1s;
      -ms-animation-duration: 1s;
          animation-duration: 1s;
  -webkit-animation-timing-function: linear;
     -moz-animation-timing-function: linear;
      -ms-animation-timing-function: linear;
          animation-timing-function: linear;
  -webkit-animation-iteration-count: infinite;
     -moz-animation-iteration-count: infinite;
      -ms-animation-iteration-count: infinite;
          animation-iteration-count: infinite;
}

@keyframes am-weather-fog-3 {
  0% {
    -webkit-transform: scale(1, 1);
       -moz-transform: scale(1, 1);
        -ms-transform: scale(1, 1);
            transform: scale(1, 1);
  }

    60% {
    -webkit-transform: scale(1.1,1.1);
       -moz-transform: scale(1.1,1.1);
        -ms-transform: scale(1.1,1.1);
            transform: scale(1.1,1.1);
  }

  100% {
    -webkit-transform: scale(1, 1);
       -moz-transform: scale(1, 1);
        -ms-transform: scale(1, 1);
            transform: scale(1, 1);
  }
}

.am-weather-fog-3 {
  -webkit-animation-name: am-weather-fog-3;
     -moz-animation-name: am-weather-fog-3;
      -ms-animation-name: am-weather-fog-3;
          animation-name: am-weather-fog-3;
  -webkit-animation-duration: 1s;
     -moz-animation-duration: 1s;
      -ms-animation-duration: 1s;
          animation-duration: 1s;
  -webkit-animation-timing-function: linear;
     -moz-animation-timing-function: linear;
      -ms-animation-timing-function: linear;
          animation-timing-function: linear;
  -webkit-animation-iteration-count: infinite;
     -moz-animation-iteration-count: infinite;
      -ms-animation-iteration-count: infinite;
          animation-iteration-count: infinite;
}

@keyframes am-weather-fog-4 {
  0% {
    -webkit-transform: scale(1, 1);
       -moz-transform: scale(1, 1);
        -ms-transform: scale(1, 1);
            transform: scale(1, 1);
  }          

    80% {
    -webkit-transform: scale(1.1,1.1);
       -moz-transform: scale(1.1,1.1);
        -ms-transform: scale(1.1,1.1);
            transform: scale(1.1,1.1);
  }          

    100% {
    -webkit-transform: scale(1, 1);
       -moz-transform: scale(1, 1);
        -ms-transform: scale(1, 1);
            transform: scale(1, 1);
  }
}

.am-weather-fog-4 {
  -webkit-animation-name: am-weather-fog-4;
     -moz-animation-name: am-weather-fog-4;
      -ms-animation-name: am-weather-fog-4;
          animation-name: am-weather-fog-4;
  -webkit-animation-duration: 1s;
     -moz-animation-duration: 1s;
      -ms-animation-duration: 1s;
          animation-duration: 1s;
  -webkit-animation-timing-function: linear;
     -moz-animation-timing-function: linear;
      -ms-animation-timing-function: linear;
          animation-timing-function: linear;
  -webkit-animation-iteration-count: infinite;
     -moz-animation-iteration-count: infinite;
      -ms-animation-iteration-count: infinite;
          animation-iteration-count: infinite;
}
        ]]></style>
    </defs>
    <g filter="url(#blur)" id="fog">
        <g transform="translate(4.5,4.5)">
            <g class="am-weather-cloud" transform-origin="center">
                <path id="emj9b7EPHDe3" d="M76.2,31.8c.6-1.9.9-3.8.9-5.9c0-10.7-8.7-19.4-19.4-19.4-7.4,0-13.9,4.2-17.2,10.3-1.2-.4-2.5-.6-3.9-.6-7.2,0-13,5.8-13,13c0,.9.1,1.8.3,2.6-6.6,1-11.6,6.7-11.6,13.6c0,7.6,6.2,13.8,13.8,13.8h47.8c7.6,0,13.8-6.2,13.8-13.8-.1-6.8-5-12.5-11.5-13.6Z" clip-rule="evenodd" fill="#56a0ee" fill-rule="evenodd"  transform="scale(0.35)"/>
            </g>
            <g class="am-weather-fog-1" transform-origin="center">
                <g id="emj9b7EPHDe4">
                    <g>
                        <path d="M82.4,69.2h-20.2c-1.1,0-2-.9-2-2s.9-2,2-2h20.2c1.1,0,2,.9,2,2s-.9,2-2,2Z" fill="#c6deff" transform="scale(0.35)"/>
                    </g>
                    <g>
                        <path d="M54,69.2h-19.5c-1.1,0-2-.9-2-2s.9-2,2-2h19.5c1.1,0,2,.9,2,2s-.9,2-2,2Z" fill="#c6deff" transform="scale(0.35)"/>
                    </g>
                    <g>
                        <path d="M26.6,69.2h-9c-1.1,0-2-.9-2-2s.9-2,2-2h9c1.1,0,2,.9,2,2s-.9,2-2,2Z" fill="#c6deff" transform="scale(0.35)"/>
                    </g>
                </g>
            </g>
            <g class="am-weather-fog-2" transform-origin="center">            
                <g id="emj9b7EPHDe11">
                    <g>
                        <path d="M82.4,77.3h-8.5c-1.1,0-2-.9-2-2s.9-2,2-2h8.5c1.1,0,2,.9,2,2s-.9,2-2,2Z" fill="#c6deff" transform="scale(0.35)"/>
                    </g>
                    <g>
                        <path d="M65.3,77.3h-15.4c-1.1,0-2-.9-2-2s.9-2,2-2h15.4c1.1,0,2,.9,2,2s-.9,2-2,2Z" fill="#c6deff" transform="scale(0.35)"/>
                    </g>
                    <g>
                        <path d="M41.6,77.3h-23.9c-1.1,0-2-.9-2-2s.9-2,2-2h23.9c1.1,0,2,.9,2,2s-.9,2-2,2Z" fill="#c6deff" transform="scale(0.35)"/>
                    </g>
                </g>
            </g>
            <g class="am-weather-fog-3" transform-origin="center">            
                <g id="emj9b7EPHDe18">
                    <g>
                        <path d="M82.4,85.4h-12.8c-1.1,0-2-.9-2-2s.9-2,2-2h12.8c1.1,0,2,.9,2,2s-.9,2-2,2Z" fill="#c6deff" transform="scale(0.35)"/>
                    </g>
                    <g>
                        <path d="M61.7,85.4h-29c-1.1,0-2-.9-2-2s.9-2,2-2h29c1.1,0,2,.9,2,2s-.9,2-2,2Z" fill="#c6deff" transform="scale(0.35)"/>
                    </g>
                    <g>
                        <path d="M24.9,85.4h-7.2c-1.1,0-2-.9-2-2s.9-2,2-2h7.2c1.1,0,2,.9,2,2s-.9,2-2,2Z" fill="#c6deff" transform="scale(0.35)"/>
                    </g>
                </g>
            </g>
            <g class="am-weather-fog-4" transform-origin="center">            
                <g id="emj9b7EPHDe25">
                    <g>
                        <path d="M82.4,93.5h-8.5c-1.1,0-2-.9-2-2s.9-2,2-2h8.5c1.1,0,2,.9,2,2s-.9,2-2,2Z" fill="#c6deff" transform="scale(0.35)"/>
                    </g>
                    <g>
                        <path d="M66.6,93.5h-8.8c-1.1,0-2-.9-2-2s.9-2,2-2h8.8c1.1,0,2,.9,2,2s-.9,2-2,2Z" fill="#c6deff" transform="scale(0.35)"/>
                    </g>
                    <g>
                        <path d="M50,93.5h-11.7c-1.1,0-2-.9-2-2s.9-2,2-2h11.7c1.1,0,2,.9,2,2s-.9,2-2,2Z" fill="#c6deff" transform="scale(0.35)"/>
                    </g>
                    <g>
                        <path d="M30.7,93.5h-13c-1.1,0-2-.9-2-2s.9-2,2-2h13c1.1,0,2,.9,2,2s-.9,2-2,2Z" fill="#c6deff" transform="scale(0.35)"/>
                    </g>
                </g>
            </g>
        </g>
    </g>
</svg>
