<?xml version="1.0" encoding="utf-8"?>

<svg 
version="1.1" 
xmlns="http://www.w3.org/2000/svg" 
xmlns:xlink="http://www.w3.org/1999/xlink" 
width="64"
height="64"
viewbox="0 0 64 64">
<defs>
    <filter id="blur" width="200%" height="200%">
        <feGaussianBlur in="SourceAlpha" stdDeviation="3"/>
        <feOffset dx="0" dy="4" result="offsetblur"/>
        <feComponentTransfer>
            <feFuncA type="linear" slope="0.05"/>
        </feComponentTransfer>
        <feMerge> 
            <feMergeNode/>
            <feMergeNode in="SourceGraphic"/> 
        </feMerge>
    </filter>
<style type="text/css">
	.st0{fill:#56A0EE;}
	.st1{fill:#F0F0F0;}
	<![CDATA[
@keyframes am-weather-blades {
  0% {
    -webkit-transform: rotate(0deg);
       -moz-transform: rotate(0deg);
        -ms-transform: rotate(0deg);
            transform: rotate(0deg);
  }

  100% {
    -webkit-transform: rotate(360deg);
       -moz-transform: rotate(360deg);
        -ms-transform: rotate(360deg);
            transform: rotate(360deg);
  }
}

.am-weather-blades {
  -webkit-animation-name: am-weather-blades;
     -moz-animation-name: am-weather-blades;
      -ms-animation-name: am-weather-blades;
          animation-name: am-weather-blades;
  -webkit-animation-duration: 1s;
     -moz-animation-duration: 1s;
      -ms-animation-duration: 1s;
          animation-duration: 1s;
  -webkit-animation-timing-function: linear;
     -moz-animation-timing-function: linear;
      -ms-animation-timing-function: linear;
          animation-timing-function: linear;
  -webkit-animation-iteration-count: infinite;
     -moz-animation-iteration-count: infinite;
      -ms-animation-iteration-count: infinite;
          animation-iteration-count: infinite;
}
        ]]>
</style>
</defs>
<g filter="url(#blur)" id="wind">
	<g transform="translate(0)">
		<path class="st0" d="M33.2,24.5l-0.1-1.3h-2.1l-0.1,1.4L28,60.2c0,0.3,0.2,0.5,0.5,0.5h7.1c0.3,0,0.5-0.3,0.5-0.5L33.2,24.5z"/>
		<circle class="st1" cx="32" cy="23" r="2.7"/>
		<g class="am-weather-blades" transform-origin="32 23">		
			<g>
				<path class="st0" d="M32.1,3.4c-0.1-0.1-0.1-0.1-0.2,0l-1.8,16.8c0,0.1,0.2,0.2,0.3,0.1c1.1-0.4,2.2-0.4,3.2,0c0.1,0,0.3,0,0.3-0.1
					L32.1,3.4z"/>
				<path class="st1" d="M30.3,20.4c-0.1,0-0.1,0-0.2,0c-0.1,0-0.1-0.1-0.1-0.2l1.8-16.9c0.1-0.1,0.1-0.1,0.2-0.1c0,0,0,0,0,0
					c0.1,0,0.1,0,0.2,0.1l0,0L34,20.2c0,0.1,0,0.1-0.1,0.2c-0.1,0-0.2,0-0.3,0c-1-0.3-2.1-0.3-3.1,0C30.4,20.4,30.3,20.4,30.3,20.4z
					M32,3.4l-1.8,16.8c0,0,0,0,0,0c0,0,0.1,0,0.1,0c1.1-0.4,2.2-0.4,3.3,0c0,0,0.1,0,0.1,0c0,0,0,0,0,0L32,3.4z M32,3.4L32,3.4L32,3.4
					z"/>
			</g>
			<g>
				<path class="st0" d="M15,32.7c0,0.1,0,0.2,0.1,0.2L30.6,26c0.1,0,0-0.2-0.1-0.3c-0.9-0.8-1.4-1.7-1.6-2.8c0-0.2-0.2-0.3-0.3-0.2
					L15,32.7z"/>
				<path class="st1" d="M30.6,25.8c0,0.1,0.1,0.1,0.1,0.2c0,0.1,0,0.2-0.1,0.2L15.1,33c-0.1,0-0.1-0.1-0.2-0.1c0,0,0,0,0,0
					c0-0.1,0-0.1,0-0.2l0,0l13.7-10c0.1,0,0.1,0,0.2,0c0.1,0.1,0.1,0.2,0.2,0.3c0.2,1.1,0.7,2,1.6,2.7C30.6,25.7,30.6,25.7,30.6,25.8z
					M15,32.8l15.5-6.8c0,0,0,0,0-0.1c0,0,0-0.1-0.1-0.1c-0.9-0.8-1.4-1.7-1.7-2.9c0,0,0-0.1-0.1-0.1c0,0,0,0-0.1,0L15,32.8z M15,32.8
					L15,32.8L15,32.8z"/>
			</g>
			<g>
				<path class="st0" d="M48.9,32.9c0.1,0,0.1-0.1,0.1-0.2l-13.7-10c-0.1-0.1-0.2,0.1-0.3,0.2c-0.2,1.1-0.8,2.1-1.6,2.8
					c-0.1,0.1-0.2,0.3-0.1,0.3L48.9,32.9z"/>
				<path class="st1" d="M35.1,22.8c0-0.1,0.1-0.1,0.1-0.1c0.1-0.1,0.2-0.1,0.2,0l13.7,10c0,0.1,0,0.1,0,0.2c0,0,0,0,0,0
					c0,0.1-0.1,0.1-0.2,0.1l0,0l-15.5-6.8c-0.1,0-0.1-0.1-0.1-0.2c0-0.1,0.1-0.2,0.2-0.3c0.8-0.7,1.3-1.6,1.6-2.7
					C35,22.9,35.1,22.8,35.1,22.8z M49,32.8l-13.7-10c0,0,0,0-0.1,0c0,0-0.1,0.1-0.1,0.1c-0.2,1.1-0.8,2.1-1.7,2.9c0,0-0.1,0.1-0.1,0.1
					c0,0,0,0,0,0.1L49,32.8z M49,32.8L49,32.8L49,32.8z"/>
			</g>
		</g>
	</g>
</g>	
</svg>
